<?xml version="1.0" encoding="utf-8"?>
<!-- Generator: Adobe Illustrator 22.0.1, SVG Export Plug-In . SVG Version: 6.00 Build 0)  -->
<svg version="1.1" id="Layer_1" xmlns="http://www.w3.org/2000/svg" xmlns:xlink="http://www.w3.org/1999/xlink" x="0px" y="0px"
	 viewBox="0 0 200 200" style="enable-background:new 0 0 200 200;" xml:space="preserve">
<style type="text/css">
	.st0{fill:#F05229;}
	.st1{fill:#8B2C1C;}
	.st2{fill:#B03C25;}
	.st3{fill:#C54329;}
	.st4{fill:none;stroke:#FFFFFF;stroke-width:5;stroke-linecap:round;stroke-miterlimit:10;}
</style>
<polygon class="st0" points="124.8,40 75.2,40 40,75.2 40,124.8 75.2,160 124.8,160 160,124.8 160,75.2 "/>
<polygon class="st1" points="124.8,40 141.4,0 200,58.6 160,75.2 "/>
<polygon class="st2" points="160,75.2 200,58.6 200,141.4 160,124.8 "/>
<polygon class="st3" points="200,141.4 141.4,200 58.6,200 75.2,160 124.8,160 160,124.8 "/>
<polygon class="st1" points="75.2,160 58.6,200 0,141.4 40,124.8 "/>
<polygon class="st3" points="124.8,40 141.4,0 58.6,0 0,58.6 40,75.2 75.2,40 "/>
<polygon class="st2" points="40,75.2 40,124.8 0,141.4 0,58.6 "/>
<g>
	<line class="st4" x1="83.9" y1="48.8" x2="75.2" y2="57.5"/>
	<line class="st4" x1="67.4" y1="65.4" x2="48.8" y2="83.9"/>
</g>
</svg>
