<?xml version="1.0" encoding="utf-8"?>
<!-- Generator: Adobe Illustrator 22.0.1, SVG Export Plug-In . SVG Version: 6.00 Build 0)  -->
<svg version="1.1" id="Layer_1" xmlns="http://www.w3.org/2000/svg" xmlns:xlink="http://www.w3.org/1999/xlink" x="0px" y="0px"
	 viewBox="0 0 200 200" style="enable-background:new 0 0 200 200;" xml:space="preserve">
<style type="text/css">
	.st0{fill:#6EA8AE;}
	.st1{fill:#5EC7CF;}
	.st2{fill:#A2DBE0;}
	.st3{fill:#678589;}
	.st4{fill:none;stroke:#FFFFFF;stroke-width:3.1466;stroke-linecap:round;stroke-miterlimit:10;}
</style>
<polygon class="st0" points="35.7,162.3 35.7,37.7 100,0 164.3,37.7 164.3,162.3 100,200 "/>
<polygon class="st1" points="135.7,152.3 100,173.2 64.3,152.3 64.3,47.7 100,26.8 135.7,47.7 "/>
<polygon class="st2" points="64.3,47.7 35.7,37.7 100,0 100,26.8 "/>
<polygon class="st0" points="100,0 164.3,37.7 135.7,47.7 100,26.8 "/>
<polygon class="st3" points="164.3,37.7 164.3,162.3 100,200 100,173.2 135.7,152.3 135.7,47.7 "/>
<g>
	<line class="st4" x1="102" y1="35.3" x2="93.3" y2="40.3"/>
	<line class="st4" x1="88.3" y1="43.3" x2="73.1" y2="52.2"/>
</g>
</svg>
