<?xml version="1.0" encoding="utf-8"?>
<!-- Generator: Adobe Illustrator 22.0.1, SVG Export Plug-In . SVG Version: 6.00 Build 0)  -->
<svg version="1.1" id="Layer_1" xmlns="http://www.w3.org/2000/svg" xmlns:xlink="http://www.w3.org/1999/xlink" x="0px" y="0px"
	 viewBox="0 0 200 200" style="enable-background:new 0 0 200 200;" xml:space="preserve">
<style type="text/css">
	.st0{fill:#FFFFFF;}
	.st1{fill:#8B2C1C;}
	.st2{fill:#B03C25;}
	.st3{fill:#C54329;}
	.st4{fill:#FFFFFF;stroke:#FFFFFF;stroke-width:2.9268;stroke-linecap:round;stroke-linejoin:round;stroke-miterlimit:10;}
</style>
<g>
	<polygon class="st0" points="126.1,38.7 141.1,2.6 195.2,56.7 159.1,71.6 	"/>
	<path class="st1" d="M141.6,5.2l51,51l-33.2,13.8l-31.6-31.6L141.6,5.2 M140.6,0l-16.2,39l34.3,34.3l39-16.2L140.6,0L140.6,0z"/>
</g>
<g>
	<polygon class="st0" points="160.2,123.2 160.2,76.8 196.3,61.8 196.3,138.2 	"/>
	<path class="st2" d="M194.9,64v72l-33.2-13.8V77.8L194.9,64 M197.8,59.6l-39,16.2v48.4l39,16.2V59.6L197.8,59.6z"/>
</g>
<g>
	<path class="st0" d="M62,198.5l15-36.1h47.4c0.4,0,0.8-0.2,1-0.4l33.6-33.6l36.1,15L140,198.5H62z"/>
	<path class="st3" d="M159.4,130.1l33.2,13.8l-53.2,53.2H64.2L78,163.9h46.4c0.8,0,1.5-0.3,2.1-0.9L159.4,130.1 M158.8,126.6
		L124.4,161H76l-16.2,39h80.8l57.2-57.2L158.8,126.6L158.8,126.6z"/>
</g>
<g>
	<polygon class="st0" points="2.8,143.3 38.9,128.4 71.9,161.3 56.9,197.4 	"/>
	<path class="st1" d="M38.6,130.1l31.6,31.6l-13.8,33.2l-51-51L38.6,130.1 M39.2,126.6l-39,16.2L57.4,200l16.2-39L39.2,126.6
		L39.2,126.6z"/>
</g>
<g>
	<path class="st0" d="M2.8,56.7L58,1.5h78l-15,36.1H73.6c-0.4,0-0.8,0.2-1,0.4L38.9,71.6L2.8,56.7z"/>
	<path class="st3" d="M133.8,2.9L120,36.1H73.6c-0.8,0-1.5,0.3-2.1,0.9l-33,33L5.4,56.1L58.6,2.9H133.8 M138.2,0L138.2,0L138.2,0z
		 M138.2,0H57.4L0.2,57.2l39,16.2L73.6,39H122L138.2,0L138.2,0z"/>
</g>
<g>
	<polygon class="st0" points="1.7,61.8 37.8,76.8 37.8,123.2 1.7,138.2 	"/>
	<path class="st2" d="M3.1,64l33.2,13.8v44.5L3.1,136V64 M0.2,59.6v80.8l39-16.2V75.8L0.2,59.6L0.2,59.6z"/>
</g>
<g>
	<line class="st4" x1="84.5" y1="50" x2="76" y2="58.5"/>
	<line class="st4" x1="68.4" y1="66.2" x2="50.3" y2="84.3"/>
</g>
</svg>
