<?xml version="1.0" encoding="utf-8"?>
<!-- Generator: Adobe Illustrator 22.0.1, SVG Export Plug-In . SVG Version: 6.00 Build 0)  -->
<svg version="1.1" id="Layer_1" xmlns="http://www.w3.org/2000/svg" xmlns:xlink="http://www.w3.org/1999/xlink" x="0px" y="0px"
	 viewBox="0 0 200 200" style="enable-background:new 0 0 200 200;" xml:space="preserve">
<style type="text/css">
	.st0{fill:#EF549E;}
	.st1{fill:#BE668F;}
	.st2{fill:#F49BC2;}
	.st3{fill:#F17BB0;}
	.st4{fill:none;stroke:#FFFFFF;stroke-width:2.8932;stroke-linecap:round;stroke-miterlimit:10;}
</style>
<g>
	<polygon class="st0" points="100,37.7 31.2,87.7 57.5,168.6 142.5,168.6 168.8,87.7 	"/>
	<polygon class="st1" points="100,37.7 100,4.9 200,77.5 168.8,87.7 	"/>
	<polygon class="st2" points="168.8,87.7 200,77.5 161.8,195.1 142.5,168.6 	"/>
	<polygon class="st1" points="161.8,195.1 142.5,168.6 57.5,168.6 38.2,195.1 	"/>
	<polygon class="st3" points="57.5,168.6 38.2,195.1 0,77.5 31.2,87.7 	"/>
	<polygon class="st2" points="31.2,87.7 0,77.5 100,4.9 100,37.7 	"/>
	<line class="st4" x1="99.8" y1="49.1" x2="88" y2="57.7"/>
	<line class="st4" x1="73.4" y1="68.2" x2="45" y2="88.9"/>
</g>
</svg>
